<?xml version="1.0" encoding="UTF-8"?>
<svg version="1.1" xmlns="http://www.w3.org/2000/svg" width="280" height="280">
<path d="M0 0 C0.68530792 -0.00067474 1.37061584 -0.00134949 2.07669067 -0.00204468 C12.95564477 0.0149242 23.41717265 0.57030681 34 3.25 C34.69609375 3.42160645 35.3921875 3.59321289 36.109375 3.77001953 C51.12598886 7.60295541 63.65715152 14.69465621 72.25 27.9375 C78.25380597 38.88426438 79.66140336 49.53448013 79.4375 61.875 C79.43034973 62.57720673 79.42319946 63.27941345 79.41583252 64.00289917 C79.29621526 75.30544756 78.55087672 86.21682792 76 97.25 C75.70198486 98.58369629 75.70198486 98.58369629 75.39794922 99.94433594 C67.76191787 133.4513559 52.54378588 170.43248747 22.4375 189.8125 C16.23065222 193.35169159 9.78205958 196.02382777 3 198.25 C1.93265625 198.61609375 0.8653125 198.9821875 -0.234375 199.359375 C-22.20934292 204.55677405 -45.84159227 197.49172872 -64.58764648 185.9543457 C-71.06485141 181.81640179 -77.17804064 177.26766984 -83 172.25 C-83.95519531 171.42886719 -84.91039062 170.60773438 -85.89453125 169.76171875 C-106.88737366 151.32476253 -127.09107942 123.09437287 -129.20483398 94.47680664 C-129.86888803 74.17162227 -127.44206048 55.54984993 -113.5625 39.75 C-112.06350421 38.22817686 -110.5435209 36.72664391 -109 35.25 C-108.34902344 34.5796875 -107.69804688 33.909375 -107.02734375 33.21875 C-96.33794422 22.83829265 -81.96366742 15.99237762 -68 11.25 C-67.26475098 10.99766602 -66.52950195 10.74533203 -65.77197266 10.48535156 C-44.42361721 3.29666496 -22.48819807 0.01999373 0 0 Z " fill="#1067EA" transform="translate(158,40.75)"/>
<path d="M0 0 C0.99 0.99 0.99 0.99 2 2 C1.78381885 9.39252636 -0.90715846 15.95999371 -3.4453125 22.8359375 C-4.11746292 24.68597885 -4.11746292 24.68597885 -4.80319214 26.57339478 C-5.75143318 29.18248217 -6.70502517 31.7895222 -7.66308594 34.39501953 C-8.87022411 37.67790418 -10.06858657 40.96389417 -11.26345825 44.25126076 C-15.65177674 56.32282741 -20.08683876 68.37223257 -24.79281616 80.32434082 C-27.2668763 86.62270862 -29.46830416 92.99414421 -31.58984375 99.41796875 C-32.94635176 103.41106978 -34.11224833 106.81651473 -37 110 C-38.88793945 109.71557617 -38.88793945 109.71557617 -41 109 C-42.55153324 106.01524215 -43.77439487 103.1256147 -45 100 C-45.54497108 98.68035226 -46.09288912 97.3619193 -46.64306641 96.04443359 C-48.23116456 92.23452582 -49.79006552 88.41348837 -51.33813477 84.5871582 C-51.99210159 82.97657441 -52.65069629 81.36786261 -53.3137207 79.76098633 C-54.27851625 77.42170704 -55.22864734 75.07694499 -56.17578125 72.73046875 C-56.47462723 72.01376511 -56.77347321 71.29706146 -57.08137512 70.55863953 C-58.12391776 67.9416151 -59.01363191 65.65367573 -58.9543457 62.81079102 C-57.56003785 60.16520867 -55.69559203 58.38083837 -53.5546875 56.296875 C-52.64203125 55.39839844 -51.729375 54.49992187 -50.7890625 53.57421875 C-49.8181476 52.63235947 -48.84679068 51.69095564 -47.875 50.75 C-42.28898847 45.29443105 -36.77967953 39.87770225 -31.70703125 33.93847656 C-28.49697924 30.29319439 -25.01611021 26.91253342 -21.5625 23.5 C-20.83095703 22.77296875 -20.09941406 22.0459375 -19.34570312 21.296875 C-17.56610176 19.52890501 -15.78419082 17.76333622 -14 16 C-18.73931362 19.98546575 -23.18168622 24.11319851 -27.49609375 28.55859375 C-30.20209877 31.19705418 -33.02522777 33.6571282 -35.87915039 36.13305664 C-39.33127109 39.17189249 -42.6614623 42.33751799 -46 45.5 C-47.98821807 47.38337064 -49.97959815 49.26229288 -51.98583984 51.12646484 C-53.37813474 52.42155224 -54.75796128 53.73012703 -56.12744141 55.04931641 C-56.82015137 55.69562012 -57.51286133 56.34192383 -58.2265625 57.0078125 C-58.84611816 57.5970752 -59.46567383 58.18633789 -60.10400391 58.79345703 C-62 60 -62 60 -64.26416016 59.93823242 C-66.9802258 59.21350845 -69.42584682 58.13354207 -72 57 C-73.35666323 56.46828871 -74.71629394 55.94411337 -76.078125 55.42578125 C-79.15752105 54.25197369 -82.22828198 53.05935826 -85.29296875 51.84765625 C-89.82436173 50.06119658 -94.37552659 48.33166402 -98.9375 46.625 C-99.60539551 46.37451904 -100.27329102 46.12403809 -100.96142578 45.8659668 C-103.62954285 44.86897738 -106.29756109 43.90081297 -109 43 C-109.33 41.35 -109.66 39.7 -110 38 C-107.17769221 35.70064097 -104.65196491 34.33730458 -101.21118164 33.16918945 C-100.25402252 32.84011597 -99.2968634 32.51104248 -98.31069946 32.17199707 C-97.2710202 31.82262085 -96.23134094 31.47324463 -95.16015625 31.11328125 C-94.06585297 30.73868774 -92.97154968 30.36409424 -91.84408569 29.97814941 C-88.25240343 28.74977395 -84.65750682 27.53110763 -81.0625 26.3125 C-76.69703526 24.82395033 -72.33275844 23.33195094 -67.96924782 21.83768272 C-66.69951622 21.40293514 -65.42968807 20.96846946 -64.15976524 20.53428078 C-55.26463515 17.49199821 -46.39753119 14.3787541 -37.5546875 11.1875 C-36.51608078 10.81344528 -35.47747406 10.43939056 -34.40739441 10.05400085 C-30.45157435 8.62784677 -26.49638733 7.20036094 -22.54788208 5.75405884 C-19.86676742 4.77208416 -17.18185241 3.80121648 -14.49609375 2.83203125 C-13.71728851 2.54235474 -12.93848328 2.25267822 -12.13607788 1.95422363 C-7.97929156 0.46513247 -4.48383174 -0.52202352 0 0 Z " fill="#FBFCFE" transform="translate(184,83)"/>
</svg>
