<?xml version="1.0" encoding="UTF-8"?>
<svg xmlns="http://www.w3.org/2000/svg" width="166" height="38" viewBox="0 0 166 38" fill="none">
  <path d="M23.7925 0C25.8261 0.0793049 28.0723 0.128111 30.2437 0.7656C35.2842 2.25104 37.797 5.10907 37.9767 10.4499C38.2402 18.2737 36.2785 25.5819 31.6064 31.8714C26.8444 38.2768 20.3183 39.7226 13.355 35.919C6.59837 32.2252 1.91724 26.6312 0.332898 18.838C-0.778236 13.3476 0.889965 8.68694 5.37044 5.28293C9.0902 2.4554 13.4269 1.18652 17.9493 0.463625C19.8837 0.167334 21.8364 0.0123986 23.7925 0Z" fill="#0F67EA"></path>
  <path d="M8.81837 15.5106L28.1442 8.6735C28.9992 8.37101 29.8242 9.19086 29.5198 10.0406L22.64 29.2462C22.377 29.9803 21.3341 29.985 21.0645 29.2533L17.9848 20.8964L26.4519 11.7224L17.2197 20.1365L8.81124 17.0763C8.07501 16.8083 8.07973 15.7719 8.81837 15.5106Z" fill="white"></path>
  <path d="M56.9751 15.2033C56.8963 14.4715 56.5642 13.9017 55.9788 13.4939C55.399 13.0861 54.6448 12.8822 53.7161 12.8822C53.0631 12.8822 52.5031 12.98 52.0359 13.1755C51.5687 13.371 51.2113 13.6364 50.9636 13.9715C50.7159 14.3067 50.5893 14.6894 50.5837 15.1195C50.5837 15.477 50.6653 15.787 50.8285 16.0496C50.9974 16.3121 51.2253 16.5356 51.5124 16.7199C51.7995 16.8987 52.1175 17.0495 52.4665 17.1724C52.8155 17.2953 53.1672 17.3986 53.5219 17.4824L55.1429 17.8846C55.7959 18.0355 56.4235 18.2394 57.0257 18.4963C57.6337 18.7533 58.1768 19.0773 58.6553 19.4683C59.1393 19.8593 59.5221 20.3314 59.8035 20.8844C60.085 21.4374 60.2257 22.0854 60.2257 22.8284C60.2257 23.8339 59.9668 24.7193 59.4489 25.4846C58.9311 26.2443 58.1825 26.8392 57.2031 27.2694C56.2293 27.6939 55.0501 27.9062 53.6654 27.9062C52.3201 27.9062 51.1522 27.6995 50.1615 27.2861C49.1765 26.8727 48.4053 26.2694 47.8481 25.4762C47.2965 24.683 46.9982 23.7166 46.9531 22.577H50.0349C50.0799 23.1747 50.2656 23.6719 50.5921 24.0685C50.9186 24.4651 51.3435 24.7612 51.867 24.9567C52.3961 25.1522 52.9871 25.25 53.6401 25.25C54.3211 25.25 54.9178 25.1494 55.43 24.9483C55.9478 24.7416 56.3531 24.4567 56.6458 24.0936C56.9385 23.7249 57.0877 23.2948 57.0933 22.8032C57.0877 22.3563 56.9554 21.9877 56.6965 21.6972C56.4375 21.4011 56.0745 21.1553 55.6073 20.9598C55.1458 20.7587 54.6054 20.58 53.9862 20.4235L52.019 19.9208C50.5949 19.5577 49.4692 19.0075 48.6417 18.2701C47.82 17.5271 47.4091 16.5412 47.4091 15.3122C47.4091 14.3011 47.6849 13.4157 48.2365 12.656C48.7937 11.8963 49.5508 11.307 50.5077 10.888C51.4646 10.4634 52.5481 10.2512 53.7583 10.2512C54.9853 10.2512 56.0604 10.4634 56.9835 10.888C57.9123 11.307 58.6412 11.8907 59.1703 12.6392C59.6994 13.3822 59.9724 14.2369 59.9893 15.2033H56.9751Z" fill="#1B1C1E"></path>
  <path d="M68.54 27.8978C67.2736 27.8978 66.176 27.6213 65.2472 27.0683C64.3185 26.5152 63.598 25.7415 63.0858 24.7472C62.5792 23.7529 62.3259 22.591 62.3259 21.2615C62.3259 19.932 62.5792 18.7672 63.0858 17.7673C63.598 16.7674 64.3185 15.9909 65.2472 15.4379C66.176 14.8849 67.2736 14.6084 68.54 14.6084C69.8065 14.6084 70.9041 14.8849 71.8328 15.4379C72.7616 15.9909 73.4792 16.7674 73.9858 17.7673C74.498 18.7672 74.7542 19.932 74.7542 21.2615C74.7542 22.591 74.498 23.7529 73.9858 24.7472C73.4792 25.7415 72.7616 26.5152 71.8328 27.0683C70.9041 27.6213 69.8065 27.8978 68.54 27.8978ZM68.5569 25.4678C69.2436 25.4678 69.8178 25.2807 70.2793 24.9064C70.7409 24.5266 71.0842 24.0182 71.3094 23.3814C71.5401 22.7446 71.6555 22.0351 71.6555 21.2531C71.6555 20.4654 71.5401 19.7532 71.3094 19.1164C71.0842 18.474 70.7409 17.9628 70.2793 17.583C69.8178 17.2031 69.2436 17.0132 68.5569 17.0132C67.8533 17.0132 67.2679 17.2031 66.8008 17.583C66.3392 17.9628 65.993 18.474 65.7623 19.1164C65.5371 19.7532 65.4245 20.4654 65.4245 21.2531C65.4245 22.0351 65.5371 22.7446 65.7623 23.3814C65.993 24.0182 66.3392 24.5266 66.8008 24.9064C67.2679 25.2807 67.8533 25.4678 68.5569 25.4678Z" fill="#1B1C1E"></path>
  <path d="M83.0052 27.8978C81.7106 27.8978 80.5989 27.6157 79.6702 27.0515C78.747 26.4873 78.035 25.708 77.534 24.7137C77.0387 23.7138 76.7911 22.563 76.7911 21.2615C76.7911 19.9543 77.0443 18.8008 77.5509 17.8008C78.0575 16.7953 78.7724 16.0133 79.6955 15.4547C80.6242 14.8905 81.7218 14.6084 82.9883 14.6084C84.0409 14.6084 84.9724 14.8011 85.783 15.1865C86.5991 15.5664 87.2492 16.1055 87.7333 16.8037C88.2174 17.4964 88.4932 18.3064 88.5607 19.2337H85.6394C85.5212 18.6136 85.2398 18.0969 84.7951 17.6835C84.3561 17.2646 83.7679 17.0551 83.0305 17.0551C82.4057 17.0551 81.8569 17.2227 81.3841 17.5578C80.9113 17.8874 80.5426 18.3623 80.2781 18.9823C80.0191 19.6024 79.8897 20.3453 79.8897 21.2112C79.8897 22.0882 80.0191 22.8423 80.2781 23.4736C80.537 24.0992 80.9 24.5824 81.3672 24.9232C81.84 25.2583 82.3945 25.4259 83.0305 25.4259C83.4808 25.4259 83.8833 25.3421 84.2379 25.1746C84.5981 25.0014 84.8993 24.7528 85.1413 24.4288C85.3833 24.1048 85.5494 23.711 85.6394 23.2473H88.5607C88.4876 24.1579 88.2174 24.9651 87.7502 25.6689C87.283 26.3672 86.647 26.9146 85.8421 27.3113C85.0372 27.7023 84.0915 27.8978 83.0052 27.8978Z" fill="#1B1C1E"></path>
  <path d="M91.0705 27.6464V14.7759H94.1269V27.6464H91.0705ZM92.6071 12.9493C92.123 12.9493 91.7065 12.7901 91.3575 12.4717C91.0085 12.1477 90.8341 11.7594 90.8341 11.307C90.8341 10.8489 91.0085 10.4607 91.3575 10.1422C91.7065 9.81825 92.123 9.65625 92.6071 9.65625C93.0968 9.65625 93.5133 9.81825 93.8567 10.1422C94.2057 10.4607 94.3802 10.8489 94.3802 11.307C94.3802 11.7594 94.2057 12.1477 93.8567 12.4717C93.5133 12.7901 93.0968 12.9493 92.6071 12.9493Z" fill="#1B1C1E"></path>
  <path d="M101.002 27.9062C100.18 27.9062 99.4397 27.7609 98.7811 27.4705C98.1282 27.1744 97.6103 26.7387 97.2276 26.1633C96.8505 25.5879 96.6619 24.8785 96.6619 24.035C96.6619 23.3088 96.797 22.7083 97.0672 22.2334C97.3373 21.7586 97.706 21.3788 98.1732 21.0939C98.6404 20.809 99.1667 20.5939 99.7521 20.4487C100.343 20.2979 100.954 20.1889 101.584 20.1219C102.344 20.0437 102.96 19.9739 103.433 19.9124C103.906 19.8454 104.249 19.7448 104.463 19.6108C104.683 19.4711 104.793 19.256 104.793 18.9656V18.9153C104.793 18.284 104.604 17.7953 104.227 17.4489C103.85 17.1026 103.307 16.9294 102.597 16.9294C101.849 16.9294 101.255 17.0914 100.816 17.4154C100.382 17.7394 100.09 18.122 99.9378 18.5634H97.2106C97.2106 17.7985 97.6807 16.7255 98.1985 16.2004C98.7164 15.6697 99.3496 15.2731 100.098 15.0106C100.847 14.7424 101.674 14.6084 102.581 14.6084C103.205 14.6084 103.827 14.681 104.446 14.8262C105.066 14.9715 105.631 15.2117 106.144 15.5468C106.656 15.8764 107.067 16.3261 107.376 16.8959C107.691 17.4657 107.849 18.1779 107.849 19.0326V27.6464H104.911V25.8784H104.809C104.624 26.2359 104.362 26.5711 104.024 26.8839C103.692 27.1912 103.273 27.4397 102.766 27.6297C102.265 27.814 101.677 27.9062 101.002 27.9062ZM101.795 25.6773C102.409 25.6773 102.941 25.5572 103.391 25.317C103.841 25.0712 104.188 24.7472 104.43 24.345C104.677 23.9428 104.801 23.5043 104.801 23.0295L104.791 21.8697C104.791 21.8697 103.919 21.9794 102.966 22.01C102.691 22.0492 102.201 22.1133 101.998 22.1413C101.542 22.2027 101.134 22.3033 100.774 22.4429C100.413 22.5826 100.129 22.7781 99.9209 23.0295C99.7127 23.2753 99.6085 23.5937 99.6085 23.9847C99.6085 24.5433 99.814 24.9651 100.225 25.25C100.636 25.5349 101.159 25.6773 101.795 25.6773Z" fill="#1B1C1E"></path>
  <path d="M113.979 9.65625V27.6464H110.922V9.65625H113.979Z" fill="#1B1C1E"></path>
  <path d="M117.257 27.6464V10.4858H123.741C125.069 10.4858 126.184 10.7316 127.085 11.2232C127.991 11.7147 128.675 12.3907 129.136 13.2509C129.603 14.1056 129.837 15.0776 129.837 16.1669C129.837 17.2674 129.603 18.2449 129.136 19.0996C128.669 19.9543 127.979 20.6274 127.068 21.119C126.156 21.605 125.033 21.848 123.699 21.848H119.401V19.2923H123.277C124.053 19.2923 124.689 19.1583 125.185 18.8901C125.68 18.622 126.046 18.2533 126.282 17.7841C126.524 17.3149 126.645 16.7758 126.645 16.1669C126.645 15.558 126.524 15.0217 126.282 14.5581C126.046 14.0944 125.677 13.7341 125.176 13.4772C124.681 13.2146 124.042 13.0833 123.26 13.0833H120.389V27.6464H117.257Z" fill="#1B1C1E"></path>
  <path d="M132.423 27.6464V14.7759H135.479V27.6464H132.423ZM133.959 12.9493C133.475 12.9493 133.059 12.7901 132.71 12.4717C132.361 12.1477 132.186 11.7594 132.186 11.307C132.186 10.8489 132.361 10.4607 132.71 10.1422C133.059 9.81825 133.475 9.65625 133.959 9.65625C134.449 9.65625 134.866 9.81825 135.209 10.1422C135.558 10.4607 135.732 10.8489 135.732 11.307C135.732 11.7594 135.558 12.1477 135.209 12.4717C134.866 12.7901 134.449 12.9493 133.959 12.9493Z" fill="#1B1C1E"></path>
  <path d="M141.678 9.65625V27.6464H138.622V9.65625H141.678Z" fill="#1B1C1E"></path>
  <path d="M150.478 27.8978C149.212 27.8978 148.114 27.6213 147.185 27.0683C146.257 26.5152 145.536 25.7415 145.024 24.7472C144.517 23.7529 144.264 22.591 144.264 21.2615C144.264 19.932 144.517 18.7672 145.024 17.7673C145.536 16.7674 146.257 15.9909 147.185 15.4379C148.114 14.8849 149.212 14.6084 150.478 14.6084C151.745 14.6084 152.842 14.8849 153.771 15.4379C154.7 15.9909 155.417 16.7674 155.924 17.7673C156.436 18.7672 156.692 19.932 156.692 21.2615C156.692 22.591 156.436 23.7529 155.924 24.7472C155.417 25.7415 154.7 26.5152 153.771 27.0683C152.842 27.6213 151.745 27.8978 150.478 27.8978ZM150.495 25.4678C151.182 25.4678 151.756 25.2807 152.218 24.9064C152.679 24.5266 153.022 24.0182 153.248 23.3814C153.478 22.7446 153.594 22.0351 153.594 21.2531C153.594 20.4654 153.478 19.7532 153.248 19.1164C153.022 18.474 152.679 17.9628 152.218 17.583C151.756 17.2031 151.182 17.0132 150.495 17.0132C149.792 17.0132 149.206 17.2031 148.739 17.583C148.277 17.9628 147.931 18.474 147.7 19.1164C147.475 19.7532 147.363 20.4654 147.363 21.2531C147.363 22.0351 147.475 22.7446 147.7 23.3814C147.931 24.0182 148.277 24.5266 148.739 24.9064C149.206 25.2807 149.792 25.4678 150.495 25.4678Z" fill="#1B1C1E"></path>
  <path d="M165.762 14.7759V17.1221H158.307V14.7759H165.762ZM160.148 11.6924H163.204V23.7752C163.204 24.183 163.266 24.4958 163.39 24.7137C163.519 24.926 163.688 25.0712 163.896 25.1494C164.105 25.2276 164.335 25.2667 164.589 25.2667C164.78 25.2667 164.955 25.2528 165.112 25.2248C165.275 25.1969 165.399 25.1718 165.484 25.1494L165.999 27.5207C165.836 27.5766 165.602 27.638 165.298 27.7051C165 27.7721 164.634 27.8112 164.2 27.8224C163.435 27.8447 162.745 27.7302 162.132 27.4788C161.518 27.2219 161.031 26.8253 160.671 26.289C160.317 25.7527 160.142 25.0824 160.148 24.278V11.6924Z" fill="#1B1C1E"></path>
</svg>
